#!OML:ASF H:\BabyWalks\Project 1\Capture day 1\Session 1\baby.ASF
:FULLY-SPECIFIED
:DEGREES
952
root 43.382 17.3733 0.467556 489.214 97.8777 484.436
lowerback 18.0752 0.170514 0.865458
upperback 5.13935 0.711671 0.999714
thorax -4.60939 0.459972 0.40579
lowerneck -1.15811 2.31807 6.89002
upperneck -15.241 2.75688 -7.72583
head -4.1271 1.54545 -3.62506
rclavicle 3.18055e-015 7.15625e-015
rhumerus -41.3759 4.51646 -82.2131
rradius 47.8265
rwrist -4.60751
rhand -12.4704 -14.3348
rfingers 7.12502
rthumb 13.6036 -43.8703
lclavicle 3.18055e-015 7.15625e-015
lhumerus -42.8897 -18.0093 80.7184
lradius 55.3304
lwrist 2.27067
lhand -6.35398 7.52995
lfingers 7.12502
lthumb 19.492 36.5729
rfemur 5.92442 15.052 22.6845
rtibia 18.5845
rfoot -13.7035 11.8091
rtoes -13.8118
lfemur -27.3673 -3.02455 -8.09653
ltibia 37.0694
lfoot -18.8309 -13.6148
ltoes 0.123183
953
root 43.3841 17.3732 0.471847 488.91 97.9023 484.171
lowerback 18.0366 0.177141 0.846732
upperback 5.14005 0.714979 0.98402
thorax -4.58822 0.461558 0.399357
lowerneck -1.16952 2.32444 6.86891
upperneck -15.2115 2.77886 -7.60547
head -4.11795 1.55052 -3.58368
rclavicle 3.18055e-015 -3.97569e-015
rhumerus -41.341 4.47737 -82.2174
rradius 47.7336
rwrist -4.76751
rhand -12.2502 -14.3424
rfingers 7.12502
rthumb 13.8159 -43.8636
lclavicle 3.18055e-015 -3.97569e-015
lhumerus -42.8539 -18.0696 80.7918
lradius 55.2965
lwrist 2.24656
lhand -6.18716 7.51917
lfingers 7.12502
lthumb 19.6524 36.5458
rfemur 5.99532 15.0473 22.7592
rtibia 18.5455
rfoot -13.6585 11.8075
rtoes -13.8442
lfemur -27.3153 -3.03741 -8.03974
ltibia 37.0666
lfoot -18.8589 -13.6115
ltoes 0.0838401
954
root 43.3864 17.3732 0.475742 488.65 97.9196 483.949
lowerback 18.0007 0.185481 0.824645
upperback 5.13787 0.719685 0.964949
thorax -4.57158 0.463763 0.390928
lowerneck -1.17584 2.32813 6.83883
upperneck -15.185 2.79863 -7.4727
head -4.11119 1.55445 -3.53708
rclavicle -5.56597e-015 1.66979e-014
rhumerus -41.3135 4.4126 -82.2129
rradius 47.5952
rwrist -4.84027
rhand -12.0638 -14.3642
rfingers 7.12502
rthumb 13.9955 -43.8731
lclavicle -5.56597e-015 1.66979e-014
lhumerus -42.8254 -18.118 80.8619
lradius 55.262
lwrist 2.22178
lhand -6.03281 7.514
lfingers 7.12502
lthumb 19.8008 36.5254
rfemur 6.06494 15.0443 22.8218
rtibia 18.5097
rfoot -13.6165 11.8078
rtoes -13.8767
lfemur -27.2607 -3.04995 -7.99542
ltibia 37.0611
lfoot -18.8862 -13.6095
ltoes 0.047327
955
root 43.389 17.3733 0.479237 488.419 97.9323 483.755
lowerback 17.9698 0.194506 0.801349
upperback 5.13355 0.724996 0.94367
thorax -4.55985 0.466223 0.380679
lowerneck -1.17831 2.33016 6.80293
upperneck -15.1634 2.81709 -7.33195
head -4.10691 1.55778 -3.48721
rclavicle 8.74653e-015 1.66979e-014
rhumerus -41.293 4.32208 -82.199
rradius 47.4124
rwrist -4.82009
rhand -11.9283 -14.3813
rfingers 7.12502
rthumb 14.1261 -43.8811
lclavicle 8.74653e-015 1.66979e-014
lhumerus -42.8045 -18.1507 80.9266
lradius 55.2288
lwrist 2.19365
lhand -5.90139 7.51063
lfingers 7.12502
lthumb 19.9271 36.509
rfemur 6.13302 15.0447 22.8763
rtibia 18.4775
rfoot -13.5772 11.8094
rtoes -13.9075
lfemur -27.2038 -3.06238 -7.95969
ltibia 37.0525
lfoot -18.9129 -13.6077
ltoes 0.0146024
956
root 43.3918 17.3735 0.482409 488.206 97.9396 483.579
lowerback 17.9446 0.203719 0.77588
upperback 5.12626 0.730095 0.920625
thorax -4.55427 0.468522 0.369788
lowerneck -1.17349 2.3316 6.76316
upperneck -15.1483 2.83556 -7.18629
head -4.10604 1.56124 -3.43549
rclavicle -1.78906e-014 1.74931e-014
rhumerus -41.2823 4.21124 -82.1788
rradius 47.1922
rwrist -4.71502
rhand -11.8325 -14.4005
rfingers 7.12502
rthumb 14.2184 -43.8939
lclavicle -1.78906e-014 1.74931e-014
lhumerus -42.7915 -18.1683 80.9852
lradius 55.1974
lwrist 2.16487
lhand -5.79668 7.50772
lfingers 7.12502
lthumb 20.0278 36.4955
rfemur 6.19864 15.0498 22.9242
rtibia 18.4499
rfoot -13.5422 11.8085
rtoes -13.9343
lfemur -27.1459 -3.07407 -7.93209
ltibia 37.0405
lfoot -18.939 -13.6078
ltoes -0.0213457
957
root 43.3948 17.3738 0.485171 488.008 97.9415 483.416
lowerback 17.9204 0.212152 0.749066
upperback 5.11862 0.733896 0.896389
thorax -4.54958 0.470186 0.358673
lowerneck -1.1582 2.33368 6.71574
upperneck -15.1473 2.85608 -7.03331
head -4.1113 1.56605 -3.38079
rclavicle 3.77691e-015 1.11319e-014
rhumerus -41.2807 4.08415 -82.1531
rradius 46.9442
rwrist -4.5335
rhand -11.7874 -14.4275
rfingers 7.12502
rthumb 14.2619 -43.9178
lclavicle 3.77691e-015 1.11319e-014
lhumerus -42.7836 -18.1675 81.0371
lradius 55.169
lwrist 2.13454
lhand -5.71651 7.50739
lfingers 7.12502
lthumb 20.1049 36.4871
rfemur 6.26168 15.0558 22.9643
rtibia 18.4261
rfoot -13.5096 11.8093
rtoes -13.9522
lfemur -27.0883 -3.08534 -7.91247
ltibia 37.0265
lfoot -18.9647 -13.6111
ltoes -0.0501012
958
root 43.398 17.3742 0.487554 487.823 97.9382 483.264
lowerback 17.8982 0.219874 0.720949
upperback 5.10875 0.736443 0.871099
thorax -4.54831 0.471185 0.347429
lowerneck -1.12861 2.33635 6.66485
upperneck -15.1603 2.8782 -6.87869
head -4.12322 1.57205 -3.32563
rclavicle 9.74045e-015 2.38542e-015
rhumerus -41.2895 3.94794 -82.1231
rradius 46.6647
rwrist -4.28395
rhand -11.7961 -14.4429
rfingers 7.12502
rthumb 14.2535 -43.9338
lclavicle 9.74045e-015 2.38542e-015
lhumerus -42.7856 -18.1524 81.0834
lradius 55.1469
lwrist 2.10856
lhand -5.66321 7.51139
lfingers 7.12502
lthumb 20.1561 36.4857
rfemur 6.32078 15.0637 22.9972
rtibia 18.4061
rfoot -13.4805 11.8098
rtoes -13.964
lfemur -27.0326 -3.09656 -7.90028
ltibia 37.0113
lfoot -18.9906 -13.6165
ltoes -0.0789398
959
root 43.4012 17.3745 0.48956 487.642 97.9341 483.113
lowerback 17.8791 0.227383 0.696372
upperback 5.09556 0.739309 0.846235
thorax -4.5522 0.472251 0.334524
lowerneck -1.07862 2.34125 6.60372
upperneck -15.1935 2.90497 -6.7168
head -4.14467 1.58088 -3.26745
rclavicle -1.09332e-014 -3.18055e-015
rhumerus -41.3135 3.80221 -82.088
rradius 46.3632
rwrist -3.9812
rhand -11.8331 -14.4516
rfingers 7.12502
rthumb 14.2179 -43.945
lclavicle -1.09332e-014 -3.18055e-015
lhumerus -42.7993 -18.12 81.1244
lradius 55.1351
lwrist 2.08521
lhand -5.63216 7.52427
lfingers 7.12502
lthumb 20.1859 36.4955
rfemur 6.37505 15.074 23.0275
rtibia 18.3889
rfoot -13.4538 11.8095
rtoes -13.9768
lfemur -26.9816 -3.10664 -7.88995
ltibia 36.9967
lfoot -19.0149 -13.6242
ltoes -0.0968153
960
root 43.4047 17.3748 0.491256 487.468 97.928 482.965
lowerback 17.8601 0.23547 0.674814
upperback 5.07932 0.743358 0.821629
thorax -4.55936 0.473809 0.319916
lowerneck -1.00206 2.34671 6.53474
upperneck -15.2502 2.93392 -6.55233
head -4.17775 1.59148 -3.2082
rclavicle -1.21259e-014 -1.27222e-014
rhumerus -41.3562 3.65068 -82.0494
rradius 46.0465
rwrist -3.63935
rhand -11.8804 -14.4634
rfingers 7.12502
rthumb 14.1722 -43.9599
lclavicle -1.21259e-014 -1.27222e-014
lhumerus -42.8271 -18.0742 81.1622
lradius 55.134
lwrist 2.06564
lhand -5.61922 7.54303
lfingers 7.12502
lthumb 20.1984 36.5129
rfemur 6.42491 15.0846 23.0535
rtibia 18.3747
rfoot -13.4294 11.8101
rtoes -13.9835
lfemur -26.9352 -3.11634 -7.88266
ltibia 36.9836
lfoot -19.0387 -13.6344
ltoes -0.101578
961
root 43.4083 17.3749 0.492653 487.301 97.9217 482.82
lowerback 17.8432 0.243966 0.657138
upperback 5.05923 0.748557 0.797783
thorax -4.57168 0.475821 0.303631
lowerneck -0.893886 2.35232 6.45652
upperneck -15.3359 2.9651 -6.38257
head -4.22506 1.60381 -3.14704
rclavicle -4.17448e-015 -5.56597e-015
rhumerus -41.4193 3.49949 -82.0094
rradius 45.7211
rwrist -3.27235
rhand -11.9374 -14.478
rfingers 7.12502
rthumb 14.1174 -43.9784
lclavicle -4.17448e-015 -5.56597e-015
lhumerus -42.8738 -18.0148 81.1978
lradius 55.1481
lwrist 2.0535
lhand -5.62689 7.56602
lfingers 7.12502
lthumb 20.191 36.5367
rfemur 6.47085 15.0952 23.0773
rtibia 18.3616
rfoot -13.4065 11.8096
rtoes -14.0088
lfemur -26.8947 -3.12538 -7.87623
ltibia 36.9736
lfoot -19.0608 -13.6467
ltoes -0.0938676
962
root 43.4119 17.3749 0.493729 487.156 97.9153 482.692
lowerback 17.8263 0.253748 0.642878
upperback 5.0354 0.755833 0.77338
thorax -4.58794 0.478736 0.28436
lowerneck -0.75518 2.35876 6.37685
upperneck -15.4504 2.99897 -6.21347
head -4.28612 1.61791 -3.0871
rclavicle -1.59028e-015 -3.18055e-015
rhumerus -41.5034 3.34873 -81.9699
rradius 45.3961
rwrist -2.89409
rhand -11.9842 -14.5047
rfingers 7.12502
rthumb 14.0723 -44.0082
lclavicle -1.59028e-015 -3.18055e-015
lhumerus -42.9413 -17.9469 81.2323
lradius 55.181
lwrist 2.05525
lhand -5.6461 7.60482
lfingers 7.12502
lthumb 20.1725 36.5774
rfemur 6.50981 15.1045 23.0961
rtibia 18.3503
rfoot -13.3862 11.8094
rtoes -14.0454
lfemur -26.8613 -3.13234 -7.87198
ltibia 36.9658
lfoot -19.0806 -13.66
ltoes -0.0733264
963
root 43.4156 17.3748 0.494514 487.007 97.908 482.557
lowerback 17.8115 0.263148 0.633266
upperback 5.00922 0.763395 0.749234
thorax -4.60772 0.481721 0.262636
lowerneck -0.590911 2.36502 6.2958
upperneck -15.5902 3.03405 -6.04465
head -4.35925 1.63289 -3.02809
rclavicle 9.14409e-015 3.18055e-015
rhumerus -41.6069 3.2012 -81.9315
rradius 45.0745
rwrist -2.51276
rhand -12.0275 -14.5376
rfingers 7.12502
rthumb 14.0305 -44.044
lclavicle 9.14409e-015 3.18055e-015
lhumerus -43.0318 -17.8722 81.2671
lradius 55.2359
lwrist 2.07455
lhand -5.6838 7.66086
lfingers 7.12502
lthumb 20.1363 36.6373
rfemur 6.54621 15.1093 23.1132
rtibia 18.3407
rfoot -13.3673 11.8095
rtoes -14.0996
lfemur -26.832 -3.14043 -7.86838
ltibia 36.9597
lfoot -19.0999 -13.6739
ltoes -0.0456909
964
root 43.4194 17.3747 0.495053 486.877 97.8956 482.44
lowerback 17.7949 0.273239 0.622576
upperback 4.98354 0.77158 0.723775
thorax -4.62606 0.485025 0.240017
lowerneck -0.405845 2.37142 6.20545
upperneck -15.7541 3.07158 -5.86696
head -4.44354 1.64923 -2.9658
rclavicle -2.98177e-015 2.38542e-015
rhumerus -41.7258 3.05574 -81.8948
rradius 44.7627
rwrist -2.13779
rhand -12.0643 -14.5816
rfingers 7.12502
rthumb 13.995 -44.0905
lclavicle -2.98177e-015 2.38542e-015
lhumerus -43.1411 -17.7979 81.3035
lradius 55.3107
lwrist 2.11324
lhand -5.7399 7.72478
lfingers 7.12502
lthumb 20.0824 36.7069
rfemur 6.57789 15.1096 23.1221
rtibia 18.3348
rfoot -13.3495 11.8098
rtoes -14.1526
lfemur -26.806 -3.14958 -7.87184
ltibia 36.953
lfoot -19.1175 -13.6889
ltoes -0.0138891
